<?xml version="1.0" encoding="UTF-8"?>
<!--Generator: Apple Native CoreSVG 341-->
<!DOCTYPE svg
PUBLIC "-//W3C//DTD SVG 1.1//EN"
       "http://www.w3.org/Graphics/SVG/1.1/DTD/svg11.dtd">
<svg version="1.1" xmlns="http://www.w3.org/2000/svg" xmlns:xlink="http://www.w3.org/1999/xlink" viewBox="0 0 40.2148 39.8633">
 <g>
  <rect height="39.8633" opacity="0" width="40.2148" x="0" y="0"/>
  <path d="M39.8438 19.9414C39.8438 30.9375 30.918 39.8633 19.9219 39.8633C8.94531 39.8633 0 30.9375 0 19.9414C0 8.96484 8.94531 0.0195312 19.9219 0.0195312C30.918 0.0195312 39.8438 8.96484 39.8438 19.9414ZM15.3125 12.4023C15.3125 14.4727 16.6797 16.1914 18.5156 16.7578L18.5156 26.8555C18.5156 29.8047 19.0039 32.4609 19.9219 32.4609C20.8594 32.4609 21.3086 29.8633 21.3086 26.8555L21.3086 16.7578C23.1641 16.2109 24.5312 14.4922 24.5312 12.4023C24.5312 9.86328 22.4609 7.8125 19.9219 7.8125C17.4023 7.8125 15.3125 9.86328 15.3125 12.4023ZM20.1953 11.2305C20.1953 12.0117 19.5312 12.6953 18.7305 12.6953C17.9688 12.6953 17.2852 12.0117 17.2852 11.2305C17.2656 10.4297 17.9688 9.74609 18.7305 9.74609C19.5312 9.74609 20.1953 10.4297 20.1953 11.2305Z" fill="#007aff"/>
 </g>
</svg>
